# AST/ASF file generated using VICON BodyLanguage
# -----------------------------------------------
:version 1.10
:name VICON
:units
  mass 1.0
  length 0.45
  angle deg
:documentation
   .ast/.asf automatically generated from VICON data using
   VICON BodyBuilder and BodyLanguage model FoxedUp or BRILLIANT.MOD
:root
   order TX TY TZ RX RY RZ
   axis XYZ
   position 0 0 0  
   orientation 0 0 0 
:bonedata
  begin
     id 1 
     name lhipjoint
     direction 0.653368 -0.678499 0.335782 
     length 2.51848 
     axis 0 0 0  XYZ
  end
  begin
     id 2 
     name lfemur
     direction 0.34202 -0.939693 0  
     length 6.57749  
     axis 0 0 20  XYZ
    dof rx ry rz
    limits (-160.0 20.0)
           (-70.0 70.0)
           (-60.0 70.0)
  end
  begin
     id 3 
     name ltibia
     direction 0.34202 -0.939693 0   
     length 7.94618   
     axis 0 0 20   XYZ
    dof rx
    limits (-10.0 170.0)
  end
  begin
     id 4 
     name lfoot
     direction 0.0811271 -0.222895 0.971461   
     length 2.31339   
     axis -90 7.62852e-016 20   XYZ
    dof rx rz
    limits (-45.0 90.0)
           (-70.0 20.0)
  end
  begin
     id 5 
     name ltoes
     direction 1.53568e-011 -4.21885e-011 1   
     length 1.15935   
     axis -90 7.62852e-016 20   XYZ
    dof rx
    limits (-90.0 20.0)
  end
  begin
     id 6 
     name rhipjoint
     direction -0.640058 -0.688614 0.340788   
     length 2.48149  
     axis 0 0 0  XYZ 
  end
  begin
     id 7 
     name rfemur
     direction -0.34202 -0.939693 0   
     length 6.57875   
     axis 0 0 -20   XYZ
    dof rx ry rz
    limits (-160.0 20.0)
           (-70.0 70.0)
           (-70.0 60.0)
  end
  begin
     id 8 
     name rtibia
     direction -0.34202 -0.939693 0   
     length 7.977   
     axis 0 0 -20   XYZ
    dof rx
    limits (-10.0 170.0)
 end
 begin
     id 9 
     name rfoot
     direction -0.0979793 -0.269196 0.958089   
     length 2.19857  
     axis -90 -7.62852e-016 -20   XYZ
    dof rx rz
    limits (-45.0 90.0)
           (-20.0 70.0)
  end
  begin
     id 10 
     name rtoes
     direction -1.53556e-011 -4.21868e-011 1   
     length 1.09838   
     axis -90 -7.62852e-016 -20   XYZ
    dof rx
    limits (-90.0 20.0)
  end
  begin
     id 11 
     name lowerback
     direction 0.0149039 0.998517 -0.0523597   
     length 2.10809   
     axis 0 0 0   XYZ
    dof rx ry rz
    limits (-20.0 45.0)
           (-30.0 30.0)
           (-30.0 30.0)
  end
  begin
     id 12 
     name upperback
     direction -0.00882659 0.999418 -0.0329624   
     length 2.1102   
     axis 0 0 0   XYZ
    dof rx ry rz
    limits (-20.0 45.0)
           (-30.0 30.0)
           (-30.0 30.0)
  end
  begin
     id 13 
     name thorax
     direction -0.0165585 0.999826 -0.0085833   
     length 2.11039   
     axis 0 0 0   XYZ
    dof rx ry rz
    limits (-20.0 45.0)
           (-30.0 30.0)
           (-30.0 30.0)
  end
  begin
     id 14 
     name lowerneck
     direction -0.0130877 0.999911 0.00260353   
     length 1.73253   
     axis 0 0 0   XYZ
    dof rx ry rz
    limits (-20.0 45.0)
           (-30.0 30.0)
           (-30.0 30.0)
  end
  begin
     id 15 
     name upperneck
     direction -0.0348454 0.928205 -0.370435   
     length 1.66692   
     axis 0 0 0   XYZ
    dof rx ry rz
    limits (-20.0 45.0)
           (-30.0 30.0)
           (-30.0 30.0)
  end
  begin
     id 16
     name head
     direction -0.00807754 0.992494 -0.122026  
     length 1.72765  
     axis 0 0 0   XYZ
    dof rx ry rz
    limits (-20.0 45.0)
           (-30.0 30.0)
           (-30.0 30.0)
  end
  begin
     id 17 
     name lclavicle
     direction 0.987582 0.144023 0.0627671  
     length 3.49235  
     axis 0 0 0   XYZ
    dof ry rz
    limits (-20.0 10.0)
           (0.0 20.0)
  end
  begin
     id 18 
     name lhumerus
     direction 1 -4.48958e-011 -1.45183e-018   
     length 5.41917   
     axis 180 -30 -90   XYZ
    dof rx ry rz
    limits (-60.0 90.0)
           (-90.0 90.0)
           (-90.0 90.0)
  end
  begin
     id 19
     name lradius
     direction 1 -4.48999e-011 5.75106e-027   
     length 2.44373   
     axis 180 -30 -90   XYZ
    dof rx
    limits (-10.0 170.0)
  end
  begin
     id 20
     name lwrist
     direction 1 -4.48987e-011 1.53461e-026   
     length 1.22186   
     axis -1.09697e-014 90 90   XYZ
    dof ry
    limits (-180.0 0.0)
 end
  begin
     id 21 
     name lhand
     direction 1 -4.48881e-011 3.06923e-026   
     length 0.727502   
     axis -1.95843e-014 90 90   XYZ
    dof rx rz
    limits (-90.0 90.0)
           (-45.0 45.0)
  end
  begin
     id 22 
     name lfingers
     direction 1 -4.48907e-011 6.13845e-026   
     length 0.586531   
     axis -3.91686e-014 90 90   XYZ
    dof rx
    limits (0.0 90.0)
  end
  begin
     id 23
     name lthumb
     direction 0.707107 -6.3487e-011 0.707107   
     length 0.842145   
     axis -90 45 2.85299e-015   XYZ
    dof rx rz
    limits (-45.0 45.0)
           (-45.0 45.0)
  end
  begin
     id 24 
     name rclavicle
     direction -0.980998 0.169556 0.0943023   
     length 3.29272  
     axis 0 0 0   XYZ 
    dof ry rz
    limits (-10.0 20.0)
           (-20.0 0.0)
  end
  begin
     id 25 
     name rhumerus
     direction -1 -1.83355e-005 2.45537e-005  
     length 5.58976   
     axis 180 30 90   XYZ
    dof rx ry rz
    limits (-90.0 60.0)
           (-90.0 90.0)
           (-90.0 90.0)
  end
  begin
     id 26 
     name rradius
     direction -1 -4.48967e-011 5.97228e-027   
     length 2.4806   
     axis 180 30 90   XYZ
    dof rx
    limits (-10.0 170.0)
  end
  begin
     id 27 
     name rwrist
     direction -1 -4.48963e-011 1.53461e-026   
     length 1.2403   
     axis -1.09697e-014 -90 -90   XYZ
    dof ry
    limits (-180.0 0.0)
  end
  begin
     id 28
     name rhand
     direction -1 -4.48881e-011 3.06923e-026   
     length 0.816009   
     axis -1.95843e-014 -90 -90   XYZ
    dof rx rz
    limits (-90.0 90.0)
           (-45.0 45.0)
  end
  begin
     id 29
     name rfingers
     direction -1 -4.49018e-011 6.13845e-026   
     length 0.657887   
     axis -3.91686e-014 -90 -90   XYZ
    dof rx
    limits (0.0 90.0)
  end
  begin
     id 30
     name rthumb
     direction -0.707107 -6.34872e-011 0.707107   
     length 0.944599   
     axis -90 -45 -2.85299e-015   XYZ
    dof rx rz
    limits (-45.0 45.0)
           (-45.0 45.0)
  end
:hierarchy
  begin
    root lhipjoint rhipjoint lowerback
    lhipjoint lfemur
    lfemur ltibia
    ltibia lfoot
    lfoot ltoes
    rhipjoint rfemur
    rfemur rtibia
    rtibia rfoot
    rfoot rtoes
    lowerback upperback
    upperback thorax
    thorax lowerneck lclavicle rclavicle
    lowerneck upperneck
    upperneck head
    lclavicle lhumerus
    lhumerus lradius
    lradius lwrist
    lwrist lhand lthumb
    lhand lfingers
    rclavicle rhumerus
    rhumerus rradius
    rradius rwrist
    rwrist rhand rthumb
    rhand rfingers
  end

#!OML:ASF F:\VICON\USERDATA\INSTALL\rory3\rory3.ASF
:FULLY-SPECIFIED
:DEGREES
33
root 0.514312 16.6082 36.7417 -153.933 -0.580055 -180.037
lowerback -19.3257 0.478215 -5.52181
upperback -11.0529 -0.778563 0.0921606
thorax -1.15967 -1.12331 3.10062
lowerneck -9.18171 1.05797 -4.55998
upperneck 33.398 -1.24755 0.757453
head 12.6051 -2.33626 0.636813
rclavicle 1.54058e-015 1.78906e-015
rhumerus -51.3932 13.4915 -89.9707
rradius 16.6487
rwrist -1.42481
rhand 12.1758 9.01343
rfingers 7.12502
rthumb 37.187 -17.0025
lclavicle 1.54058e-015 1.78906e-015
lhumerus -52.5549 6.54082 70.0375
lradius 24.6119
lwrist -1.34786
lhand 8.02534 18.3162
lfingers 7.12502
lthumb 33.2511 45.2631
rfemur -32.6567 -21.496 31.6994
rtibia 61.3507
rfoot 20.1993 -27.0885
rtoes 30.3777
lfemur -46.7172 -3.07748 -31.0914
ltibia 43.4723
lfoot -39.4436 21.7653
ltoes 10.157
34
root 0.510462 16.6025 36.7201 -154.229 -0.669009 -180.247
lowerback -19.254 0.393421 -5.58379
upperback -10.8607 -0.815964 0.101863
thorax -0.980989 -1.11983 3.1356
lowerneck -9.45567 1.04217 -4.75252
upperneck 33.4956 -1.193 0.738736
head 12.7043 -2.33442 0.668435
rclavicle -1.2921e-015 -3.97569e-015
rhumerus -51.7081 14.2846 -90.6486
rradius 17.0922
rwrist -2.79581
rhand 12.9818 8.74971
rfingers 7.12502
rthumb 37.9487 -17.0635
lclavicle -1.2921e-015 -3.97569e-015
lhumerus -52.5472 6.27992 70.4158
lradius 24.2838
lwrist -1.79382
lhand 8.35558 18.1543
lfingers 7.12502
lthumb 33.565 45.0335
rfemur -32.1987 -21.6558 31.3496
rtibia 61.3378
rfoot 20.0728 -27.0987
rtoes 30.7751
lfemur -46.2695 -3.12639 -31.3283
ltibia 43.4535
lfoot -39.358 21.8808
ltoes 9.60963
35
root 0.513739 16.5977 36.7211 -154.131 -0.648676 -180.441
lowerback -19.3625 0.359815 -5.75393
upperback -10.7604 -0.800826 0.0823537
thorax -0.820872 -1.10241 3.21
lowerneck -9.79861 0.999017 -4.81678
upperneck 33.5171 -1.15256 0.67092
head 12.7863 -2.31521 0.659496
rclavicle 7.60351e-015 -1.98785e-014
rhumerus -51.9538 15.0092 -91.3171
rradius 17.6006
rwrist -4.10631
rhand 13.3555 8.77904
rfingers 7.12502
rthumb 38.3015 -16.9375
lclavicle 7.60351e-015 -1.98785e-014
lhumerus -52.4018 5.96014 70.7814
lradius 24.0899
lwrist -2.08083
lhand 8.93548 18.1468
lfingers 7.12502
lthumb 34.116 44.9047
rfemur -32.3782 -21.6049 31.212
rtibia 61.3992
rfoot 20.2463 -27.133
rtoes 30.6212
lfemur -46.376 -2.95635 -31.6349
ltibia 43.4542
lfoot -39.0735 21.7847
ltoes 9.55901
36
root 0.512115 16.5944 36.7101 -154.237 -0.700135 -180.545
lowerback -19.4671 0.317411 -5.75362
upperback -10.5433 -0.785714 0.0848356
thorax -0.529842 -1.08236 3.20884
lowerneck -10.3733 0.952358 -4.82257
upperneck 33.7142 -1.10907 0.534661
head 12.993 -2.30336 0.609582
rclavicle 3.72721e-016 7.35503e-015
rhumerus -52.1381 15.6258 -91.8626
rradius 18.0776
rwrist -5.22862
rhand 13.6039 8.77778
rfingers 7.12502
rthumb 38.5359 -16.8736
lclavicle 3.72721e-016 7.35503e-015
lhumerus -52.3015 5.6261 71.158
lradius 24.0993
lwrist -2.22073
lhand 9.7962 18.2436
lfingers 7.12502
lthumb 34.933 44.8153
rfemur -32.1901 -21.718 31.0399
rtibia 61.4121
rfoot 20.0378 -27.2496
rtoes 31.1394
lfemur -46.2328 -2.82043 -31.8317
ltibia 43.4732
lfoot -38.8325 21.8385
ltoes 9.43231
37
root 0.510384 16.5943 36.6979 -154.391 -0.856483 -180.534
lowerback -19.521 0.247012 -5.62329
upperback -10.3609 -0.839805 0.145492
thorax -0.293161 -1.10045 3.18465
lowerneck -10.8423 0.91536 -4.78791
upperneck 33.9302 -1.07094 0.332705
head 13.1868 -2.30771 0.524269
rclavicle -2.85753e-016 -1.0138e-014
rhumerus -52.3699 16.2621 -92.4417
rradius 18.3518
rwrist -6.25273
rhand 13.8952 8.58352
rfingers 7.12502
rthumb 38.8107 -16.9905
lclavicle -2.85753e-016 -1.0138e-014
lhumerus -52.3154 5.43714 71.4344
lradius 24.0669
lwrist -2.37966
lhand 10.4971 18.2825
lfingers 7.12502
lthumb 35.5977 44.6969
rfemur -31.9595 -21.8845 31.0238
rtibia 61.435
rfoot 20.0612 -27.097
rtoes 30.6947
lfemur -46.038 -2.68161 -31.882
ltibia 43.4807
lfoot -38.5461 21.9888
ltoes 8.94948
38
root 0.511433 16.5946 36.6934 -154.437 -0.915717 -180.64
lowerback -19.5757 0.150768 -5.66649
upperback -10.24 -0.921882 0.189367
thorax -0.125032 -1.13202 3.23682
lowerneck -11.1087 0.941193 -4.67403
upperneck 34.0032 -0.959436 0.123314
head 13.2725 -2.26699 0.435873
rclavicle -1.72694e-015 2.0276e-014
rhumerus -52.6421 16.8617 -92.9875
rradius 18.5955
rwrist -7.06579
rhand 14.2345 8.26609
rfingers 7.12502
rthumb 39.1306 -17.2164
lclavicle -1.72694e-015 2.0276e-014
lhumerus -52.3124 5.38717 71.628
lradius 23.8272
lwrist -2.6945
lhand 10.9642 18.0074
lfingers 7.12502
lthumb 36.0403 44.314
rfemur -31.9407 -21.9214 30.921
rtibia 61.4876
rfoot 21.0895 -27.3564
rtoes 29.6181
lfemur -45.9563 -2.60529 -32.0343
ltibia 43.4726
lfoot -38.4201 21.9874
ltoes 8.80188
39
root 0.51213 16.5937 36.6898 -154.363 -0.84089 -180.786
lowerback -19.697 0.126967 -5.74742
upperback -10.1388 -0.909449 0.180616
thorax 0.0445732 -1.12151 3.27178
lowerneck -11.396 0.990583 -4.57557
upperneck 34.0086 -0.813269 0.0142072
head 13.333 -2.18963 0.397424
rclavicle -6.1499e-015 3.57812e-015
rhumerus -52.8499 17.3426 -93.4564
rradius 18.8755
rwrist -7.7639
rhand 14.6482 8.22757
rfingers 7.12502
rthumb 39.5204 -17.1414
lclavicle -6.1499e-015 3.57812e-015
lhumerus -52.2083 5.22301 71.9292
lradius 23.6031
lwrist -2.92084
lhand 11.5137 17.6954
lfingers 7.12502
lthumb 36.5606 43.8722
rfemur -32.0604 -21.7739 30.739
rtibia 61.5496
rfoot 19.8949 -27.4274
rtoes 31.2744
lfemur -46.0151 -2.60831 -32.2161
ltibia 43.456
lfoot -38.4779 21.96
ltoes 9.16283
40
root 0.512808 16.5934 36.6832 -154.283 -0.893901 -180.76
lowerback -19.8713 0.203292 -5.55433
upperback -10.1377 -0.839349 0.115086
thorax 0.129582 -1.10217 3.10347
lowerneck -11.1821 1.00277 -4.53971
upperneck 33.8574 -0.817927 0.0629371
head 13.2203 -2.17287 0.414422
rclavicle 2.93207e-015 -3.57812e-015
rhumerus -53.3085 17.7456 -94.1616
rradius 19.1073
rwrist -8.74355
rhand 14.9517 8.73278
rfingers 7.12502
rthumb 39.8062 -16.5514
lclavicle 2.93207e-015 -3.57812e-015
lhumerus -52.3521 4.54772 72.4016
lradius 23.7209
lwrist -2.74164
lhand 12.2743 18.0249
lfingers 7.12502
lthumb 37.2801 44.0164
rfemur -32.1316 -21.5924 30.7909
rtibia 61.5668
rfoot 20.204 -27.6262
rtoes 31.7122
lfemur -46.1075 -2.60392 -32.1893
ltibia 43.452
lfoot -38.4002 22.0655
ltoes 9.08267
41
root 0.515007 16.5906 36.6766 -154.321 -1.02585 -180.723
lowerback -19.9526 0.277518 -5.3595
upperback -10.192 -0.788577 0.0409401
thorax 0.109106 -1.09243 2.92387
lowerneck -10.6077 1.00414 -4.50893
upperneck 33.6885 -0.91552 0.134208
head 13.025 -2.21212 0.427337
rclavicle -2.45996e-015 2.5842e-015
rhumerus -53.9453 17.8709 -94.7255
rradius 19.3568
rwrist -9.62807
rhand 15.0541 9.2507
rfingers 7.12502
rthumb 39.9026 -16.0047
lclavicle -2.45996e-015 2.5842e-015
lhumerus -52.7751 3.54481 73.0329
lradius 24.1147
lwrist -2.4468
lhand 13.0808 18.612
lfingers 7.12502
lthumb 38.0422 44.3998
rfemur -32.0675 -21.5058 30.8774
rtibia 61.558
rfoot 20.0177 -27.4967
rtoes 31.0021
lfemur -46.0802 -2.64174 -32.1073
ltibia 43.4679
lfoot -38.3132 22.1383
ltoes 9.08969
42
root 0.518469 16.585 36.6718 -154.296 -1.0353 -180.754
lowerback -20.1196 0.312317 -5.35605
upperback -10.2486 -0.76158 0.0363412
thorax 0.12822 -1.09001 2.92116
lowerneck -10.148 1.03385 -4.52153
upperneck 33.6054 -0.942951 0.145775
head 12.8908 -2.23916 0.431805
rclavicle 3.21783e-015 -2.14687e-014
rhumerus -54.3816 17.6322 -94.663
rradius 19.668
rwrist -9.89639
rhand 15.4768 9.10444
rfingers 7.12502
rthumb 40.3003 -16.0303
lclavicle 3.21783e-015 -2.14687e-014
lhumerus -53.2242 2.72887 73.7174
lradius 24.4405
lwrist -2.34967
lhand 13.4814 18.5619
lfingers 7.12502
lthumb 38.4203 44.2456
rfemur -32.0997 -21.4051 30.8743
rtibia 61.5597
rfoot 21.9873 -27.8968
rtoes 30.6442
lfemur -46.1132 -2.71007 -32.1108
ltibia 43.4999
lfoot -38.4239 22.0279
ltoes 9.75593
